<?xml version="1.0" encoding="UTF-8" standalone="no"?>
<!-- Created with Inkscape (http://www.inkscape.org/) -->

<svg
   version="1.1"
   id="svg635"
   width="412.66666"
   height="199.33333"
   viewBox="0 0 412.66666 199.33333"
   sodipodi:docname="AntonsSkafferi2.svg"
   inkscape:version="1.2.2 (732a01da63, 2022-12-09)"
   xmlns:inkscape="http://www.inkscape.org/namespaces/inkscape"
   xmlns:sodipodi="http://sodipodi.sourceforge.net/DTD/sodipodi-0.dtd"
   xmlns:xlink="http://www.w3.org/1999/xlink"
   xmlns="http://www.w3.org/2000/svg"
   xmlns:svg="http://www.w3.org/2000/svg">
  <defs
     id="defs639">
    <linearGradient
       id="linearGradient19918"
       inkscape:swatch="solid">
      <stop
         style="stop-color:#424242;stop-opacity:0;"
         offset="0"
         id="stop19916" />
    </linearGradient>
    <linearGradient
       id="linearGradient13060"
       inkscape:swatch="solid">
      <stop
         style="stop-color:#000000;stop-opacity:1;"
         offset="0"
         id="stop13058" />
    </linearGradient>
    <linearGradient
       id="linearGradient9278"
       inkscape:swatch="solid">
      <stop
         style="stop-color:#282828;stop-opacity:1;"
         offset="0"
         id="stop9276" />
    </linearGradient>
    <linearGradient
       id="linearGradient9272"
       inkscape:swatch="solid">
      <stop
         style="stop-color:#282828;stop-opacity:1;"
         offset="0"
         id="stop9270" />
    </linearGradient>
    <rect
       x="77.428192"
       y="-20.85965"
       width="123.03658"
       height="46.315494"
       id="rect2021" />
    <rect
       x="187.3833"
       y="153.08862"
       width="59.750523"
       height="32.526912"
       id="rect2015" />
    <rect
       x="333.40085"
       y="130.4612"
       width="50.204581"
       height="43.487067"
       id="rect2009" />
    <rect
       x="306.17724"
       y="104.29825"
       width="38.890873"
       height="25.809397"
       id="rect2003" />
    <rect
       x="190.27873"
       y="79.669549"
       width="124.93742"
       height="72.077484"
       id="rect1251" />
    <linearGradient
       inkscape:collect="always"
       xlink:href="#linearGradient19918"
       id="linearGradient19920"
       x1="181.07046"
       y1="143.62161"
       x2="267.98097"
       y2="143.62161"
       gradientUnits="userSpaceOnUse"
       gradientTransform="matrix(1.3094211,0,0,1.2522299,-147.96442,-83.249132)" />
  </defs>
  <sodipodi:namedview
     id="namedview637"
     pagecolor="#505050"
     bordercolor="#eeeeee"
     borderopacity="1"
     inkscape:showpageshadow="0"
     inkscape:pageopacity="0"
     inkscape:pagecheckerboard="0"
     inkscape:deskcolor="#505050"
     showgrid="false"
     inkscape:zoom="1.4142136"
     inkscape:cx="167.23075"
     inkscape:cy="91.216774"
     inkscape:window-width="1920"
     inkscape:window-height="986"
     inkscape:window-x="974"
     inkscape:window-y="2149"
     inkscape:window-maximized="1"
     inkscape:current-layer="g641" />
  <g
     inkscape:groupmode="layer"
     inkscape:label="Image"
     id="g641">
    <text
       xml:space="preserve"
       id="text2019"
       style="font-style:normal;font-variant:normal;font-weight:bold;font-stretch:normal;font-size:16px;line-height:0px;font-family:Caladea;-inkscape-font-specification:'Caladea, Bold';font-variant-ligatures:normal;font-variant-caps:normal;font-variant-numeric:normal;font-variant-east-asian:normal;text-align:end;white-space:pre;shape-inside:url(#rect2021);display:inline;fill:#000000;fill-opacity:1"
       transform="matrix(1.6792652,0,0,2.0111054,-24.333622,143.22311)"
       inkscape:label="text2019"><tspan
         x="87.552826"
         y="-16.411375"
         id="tspan34107">Antons Skafferi</tspan></text>
    <path
       style="display:inline;fill:url(#linearGradient19920);fill-opacity:1;stroke:#000000;stroke-width:0.514;stroke-linecap:square;stroke-linejoin:bevel;stroke-dasharray:none;stroke-dashoffset:0;stroke-opacity:1"
       d="m 179.47201,138.6256 c -1.45078,-0.1264 -3.55717,-0.64481 -4.9081,-1.2081 -5.32658,-2.22092 -10.22895,-6.86096 -20.71933,-19.61054 -5.91621,-7.19036 -7.87145,-9.29244 -9.00961,-9.68614 -0.41402,-0.14327 -0.48903,-0.1417 -0.72238,0.0142 -0.66813,0.44697 -3.60317,3.57953 -9.81823,10.47898 -5.45175,6.05203 -6.70428,7.40309 -9.32925,10.06281 -3.94528,3.99758 -7.28776,6.71403 -9.86899,8.02069 -2.62142,1.32696 -5.65347,2.00477 -8.55071,1.91147 -3.13407,-0.101 -4.53432,-0.89594 -5.7378,-3.25741 -1.751885,-3.43771 -0.70366,-7.36681 2.95797,-11.08729 3.55417,-3.61136 9.44323,-7.43477 23.69459,-15.38357 7.82622,-4.36512 10.45386,-5.88924 10.48211,-6.07992 0.0874,-0.58915 -0.4217,-1.38373 -1.52144,-2.37518 -1.79129,-1.614962 -2.74354,-2.13845 -3.6251,-1.992789 -0.23583,0.03889 -0.92815,0.262777 -1.53845,0.497387 -2.12141,0.81548 -4.04195,1.086402 -7.65818,1.080342 -6.67647,-0.0103 -11.20865,-1.271422 -15.92656,-4.428616 -6.52949,-4.369503 -12.398695,-11.747073 -15.999847,-20.11181 -1.878222,-4.362698 -2.662111,-7.653153 -2.434342,-10.218276 0.194595,-2.1905 1.358206,-4.617637 2.718201,-5.669417 1.22196,-0.945042 4.109891,-1.748551 6.662161,-1.853631 10.056977,-0.414016 29.411667,7.419569 37.114747,15.021767 1.84451,1.820335 3.57692,4.438359 4.51421,6.821884 1.76895,4.498373 1.5423,8.905153 -0.63882,12.420797 -0.71445,1.151621 -0.89566,2.089468 -0.50207,2.598625 0.40716,0.526782 2.52572,2.182744 3.49273,2.730126 1.39961,0.792255 1.4354,0.797047 2.33934,0.314655 1.11529,-0.595226 3.98877,-2.732802 6.59512,-4.906122 2.29936,-1.917351 3.11459,-2.863995 3.11459,-3.616663 0,-0.16888 -0.17554,-0.659221 -0.38997,-1.089605 -0.60534,-1.214701 -0.79359,-2.376445 -0.68331,-4.216682 0.15487,-2.581789 0.7467,-4.130715 2.06645,-5.407832 2.75513,-2.666223 15.62821,-12.268674 28.17855,-21.019404 4.09223,-2.853301 4.503,-3.072084 5.25954,-2.801247 0.46588,0.16681 0.3968,0.40983 -0.35291,1.241397 -1.7693,1.962451 -5.15755,4.909645 -13.48106,11.726095 -6.84196,5.603146 -10.70768,8.911684 -12.73677,10.900923 -0.97186,0.952785 -1.12114,1.309361 -0.79107,1.890061 0.66517,1.170425 3.54632,-0.483845 11.12456,-6.387382 0.4939,-0.384759 3.13068,-2.491487 5.85952,-4.68162 7.84739,-6.29827 11.30814,-8.941274 13.5572,-10.353758 1.88017,-1.180811 2.41187,-1.302178 1.82652,-0.416956 -0.92005,1.391427 -5.54835,5.503968 -13.45075,11.95189 -10.53831,8.598642 -14.24239,12.003739 -14.24239,13.092829 0,0.400154 0.66617,1.218075 1.08167,1.328039 0.21812,0.05787 0.54701,-0.111291 1.38895,-0.71386 1.90811,-1.365589 7.36274,-5.648725 14.50583,-11.390429 8.85231,-7.115562 13.78493,-10.969206 14.97611,-11.700143 0.48132,-0.295337 0.86659,-0.213087 0.86659,0.185007 0,0.99323 -3.14198,3.854514 -14.47679,13.183314 -6.69681,5.511585 -10.69631,8.933862 -12.87766,11.019121 -1.05312,1.006727 -1.28186,1.297992 -1.28186,1.632458 0,0.814215 0.43904,1.067839 1.3889,0.802331 1.93221,-0.540084 5.57534,-3.174955 16.07238,-11.624321 8.57329,-6.900874 12.81794,-10.10463 14.11933,-10.656907 1.56136,-0.66263 0.47252,1.329468 -2.47185,4.522359 -2.33333,2.530272 -19.29545,18.249314 -23.05277,21.363294 -1.60365,1.329091 -3.34535,2.477327 -4.19827,2.767848 -1.94307,0.661772 -6.47543,0.895688 -8.99677,0.464309 -0.68092,-0.11646 -1.39635,-0.286004 -1.58987,-0.376683 -0.41662,-0.19521 -1.28587,-0.215009 -1.77896,-0.0406 -1.13876,0.402979 -2.95126,1.711059 -6.68758,4.826353 -2.41518,2.013712 -2.94505,2.574082 -3.03534,3.210192 -0.064,0.45011 -5.2e-4,0.57329 0.60114,1.1754 0.99923,0.99928 4.85085,3.39531 12.47059,7.75779 11.70626,6.70208 17.53835,10.60268 20.94852,14.0108 1.61099,1.61006 3.00508,3.78989 3.68125,5.75625 0.41038,1.19349 0.3861,2.99259 -0.0526,3.89319 -0.68038,1.39671 -2.32817,2.94329 -3.59759,3.37652 -1.07131,0.36564 -2.94175,0.48384 -4.92404,0.3112 z"
       id="path1195"
       inkscape:label="path1195" />
  </g>
</svg>
